<svg width="209" height="64" fill="none" xmlns="http://www.w3.org/2000/svg"><path d="M15.167 1h31.739a14.143 14.143 0 0114.167 14.164v31.744c0 7.849-6.32 14.165-14.167 14.165H15.167C7.333 61.073 1 54.744 1 46.908V15.177C1 7.329 7.32 1 15.167 1v0z" stroke="#fff" stroke-width=".757"/><g fill="#fff"><path d="M29.916 32.46c-.68 4.38-4.835 7.526-9.947 7.526-6.182 0-10.677-4.456-10.677-10.622 0-.762.076-4.694 3.072-7.677 1.36-1.348 2.77-1.96 3.425-2.247 1.524-.65 3.072-.911 12.402-.911h.529c1.057 1.31 2.115 2.621 3.172 3.92-3.072-.013-7.29.05-11.81.299-.83.05-2.077.137-3.31.948-1.713 1.124-2.758 3.146-2.758 5.655 0 3.87 2.53 6.603 6.068 6.603 2.531 0 4.81-1.722 5.427-4.069l4.407.574z"/><path d="M35.77 31.099c.164 2.758 2.732 4.88 5.905 4.88 3.765 0 6.472-2.783 6.472-6.603 0-2.322-.957-4.244-2.53-5.405-1.146-.849-2.33-1.036-3.79-1.198-2.355-.262-5.717-.487-9.934-.3a1077.77 1077.77 0 00-3.173-3.92c2.354-.024 4.369-.012 5.942 0 3.45.026 5.188.088 6.07.125 1.497.063 2.24.1 2.505.125.994.138 4.696.662 7.302 3.807 2.128 2.572 2.33 5.568 2.33 6.766C52.868 35.53 48.234 40 41.788 40c-6.749 0-11.219-5.018-10.564-11.959h10.74v3.071L35.77 31.1z"/><g><path d="M45.163 18.267c-.252-.088-.592-.2-1.007-.313-.227-.062-.403-.112-.63-.15-.63-.124-1.133-.137-1.763-.15-.188 0-.44-.012-.755 0V9.23h4.155v9.038z"/><path d="M32.094 45.094c.063.312.39 1.847 1.901 2.746 0 0 1.12.6 2.53.612.165 0 2.318-.075 3.728-1.66 1.07-1.211 1.145-2.647 1.17-3.246.013-.162 0-.175-.025-1.71-.012-.786-.025-1.423-.025-1.848.529.05 1.171.063 1.914 0 .58-.05 1.095-.15 1.498-.25v3.795c-.012.625-.075 2.51-1.284 4.332-.894 1.36-2.09 2.134-2.757 2.496a9.022 9.022 0 01-4.558 1.099 8.937 8.937 0 01-2.632-.55 8.208 8.208 0 01-2.279-1.322 8.206 8.206 0 01-1.913-2.247 7.24 7.24 0 01-.869-2.297c1.196.012 2.392.037 3.6.05z" stroke="#fff" stroke-width=".757"/><path d="M33.982 41.35H27.07c-.995 0-1.8.923-1.8 2.059v.387c0 1.136.805 2.06 1.8 2.06H33.982c.995 0 1.8-.924 1.8-2.06v-.387c-.012-1.136-.818-2.06-1.8-2.06z"/></g></g><g fill="#fff"><path d="M83.813 41.557c-.314 3.26-3.35 5.64-7.2 5.64-4.44 0-7.65-3.16-7.65-7.529 0-4.356 3.21-7.529 7.625-7.529 3.813 0 6.823 2.392 7.187 5.716l-3.913.416a3.216 3.216 0 00-3.136-2.519c-2.094 0-3.524 1.587-3.524 3.904 0 2.316 1.442 3.902 3.5 3.902 1.504 0 2.821-1.045 3.147-2.48l3.964.479zM85.556 46.705V32.642h4.252v5.149h4.679v-5.15h4.252v14.064h-4.252v-5.603h-4.679v5.603h-4.252z"/><path fill-rule="evenodd" clip-rule="evenodd" d="M110.391 46.705h4.44l-4.39-14.063h-6.184L99.88 46.705h4.44l.602-2.115h4.867l.602 2.115zm-1.418-5.112h-3.223l1.605-5.363 1.618 5.363z"/><path d="M115.997 46.705V32.642h4.252v10.45h5.13v3.613h-9.382zM127.022 46.705V32.642h4.252v10.45h5.13v3.613h-9.382zM148.232 43.368v3.337h-10.197V32.642h9.996v3.323h-5.907v2.14h5.13v2.871h-5.13v2.392h6.108zM159.182 41.58v-8.938h3.951v14.063h-4.428l-4.791-8.914v8.914h-3.951V32.642h4.428l4.791 8.938zM172.602 41.064v-2.48h7.626c.515 4.985-2.646 8.599-7.475 8.599-4.553 0-7.864-3.16-7.864-7.529 0-4.356 3.311-7.529 7.864-7.529 3.424 0 6.158 1.964 6.811 4.709l-3.914.73c-.338-1.057-1.53-1.825-2.91-1.825-2.094 0-3.599 1.624-3.599 3.902 0 2.254 1.567 3.903 3.775 3.903 1.718 0 3.148-1.082 3.274-2.518h-3.588v.038zM192.232 43.368v3.337h-10.198V32.642h9.997v3.323h-5.908v2.14h5.13v2.871h-5.13v2.392h6.109zM193.461 42.071h3.675c.025 1.196 1.129 2.078 2.659 2.078 1.254 0 2.057-.592 2.057-1.373 0-2.48-8.316-.037-8.316-5.791 0-2.908 2.483-4.835 6.008-4.835 3.524 0 6.071 2.065 6.083 4.91h-3.537c0-1.082-1.041-1.863-2.421-1.863-1.191 0-2.019.529-2.019 1.272 0 2.354 8.316-.038 8.316 5.716 0 2.97-2.597 5.01-6.297 5.01-3.599 0-6.208-2.165-6.208-5.124z"/></g><path fill-rule="evenodd" clip-rule="evenodd" d="M100.31 22.99a.541.541 0 01-.21.326c-.105.082-.21.109-.316.136-.21.082-.447.136-.632.245-.237.108-.447.163-.631.244-.237.109-.474.163-.685.245-.157.081-.315.163-.473.272a1.725 1.725 0 00-.343.407c-.105.163-.131.38-.131.652 0 .517.132.897.368 1.196.237.245.685.38 1.343.38.658 0 1.105-.135 1.342-.38.237-.272.368-.652.368-1.141V22.99zm-1.736-5.517c1.184 0 2.026.245 2.605.707.553.49.816 1.087.816 1.794v6.114a2.4 2.4 0 01-.131.815c-.106.327-.264.571-.501.816a3.058 3.058 0 01-1.052.625c-.448.163-1.027.244-1.737.244-.711 0-1.29-.081-1.737-.244a3.06 3.06 0 01-1.053-.625c-.264-.245-.448-.517-.5-.816-.08-.326-.132-.57-.132-.815v-1.005c0-.517.132-1.006.368-1.44.264-.408.632-.735 1.106-.898.237-.108.5-.163.816-.271.316-.109.605-.218.921-.326.316-.11.553-.218.737-.272.21-.082.342-.136.395-.136a.761.761 0 01.21-.109c.08-.027.158-.136.264-.217.078-.109.131-.218.21-.326.079-.136.079-.272.079-.462v-.38c0-.137-.026-.272-.079-.408-.026-.136-.132-.272-.263-.38-.132-.137-.316-.218-.553-.327-.21-.081-.5-.109-.842-.109-.684 0-1.106.136-1.342.408-.21.245-.343.57-.343.897 0 .081-.079.136-.131.136h-1.448c-.079 0-.131-.082-.131-.136v-.354c0-.353.079-.652.21-.978.132-.326.342-.57.606-.815a2.705 2.705 0 011.079-.516c.447-.082.947-.19 1.553-.19zM75.307 22.99a.542.542 0 01-.21.326c-.106.082-.211.109-.316.136-.21.082-.448.136-.632.245-.237.108-.447.163-.632.244-.236.109-.473.163-.684.245-.158.081-.316.163-.474.272a1.72 1.72 0 00-.342.407c-.105.163-.131.38-.131.652 0 .517.131.897.368 1.196.237.245.684.38 1.342.38s1.106-.135 1.395-.38c.237-.272.369-.652.369-1.141l-.053-2.582zm-1.684-5.517c1.184 0 2.026.245 2.605.707.553.49.816 1.087.816 1.794v6.114c0 .245-.026.516-.132.815-.079.327-.263.571-.5.816a3.06 3.06 0 01-1.052.625c-.448.163-1.027.244-1.737.244-.711 0-1.29-.081-1.738-.244a3.06 3.06 0 01-1.052-.625c-.264-.245-.448-.517-.5-.816a2.497 2.497 0 01-.132-.815v-1.005c0-.517.132-1.006.368-1.44.264-.408.632-.735 1.106-.898.237-.108.5-.163.816-.271.316-.109.605-.218.921-.326.316-.11.553-.218.737-.272.21-.082.342-.136.395-.136.079 0 .131-.082.21-.109.105-.027.158-.136.263-.217.106-.109.132-.218.211-.326.079-.136.105-.272.105-.462v-.38a.786.786 0 00-.105-.408c-.026-.136-.132-.272-.263-.38-.132-.137-.316-.218-.553-.327-.21-.081-.5-.109-.842-.109-.684 0-1.105.136-1.342.408-.211.245-.343.57-.343.897 0 .081-.079.136-.131.136h-1.448c-.079 0-.131-.082-.131-.136v-.354c0-.353.079-.652.21-.978.132-.326.342-.57.606-.815a2.704 2.704 0 011.079-.516c.395-.082.947-.19 1.553-.19zm19.765 0h.974c.106 0 .132.11.132.163l-.342 1.305c0 .081-.08.109-.132.109h-.658c-.368 0-.631.027-.868.135-.21.11-.395.218-.5.354a.825.825 0 00-.237.407c-.027.136-.027.272-.027.408v8.126c0 .081-.079.135-.131.135H90.15c-.079 0-.131-.081-.131-.135V20c0-.135.026-.38.105-.651.026-.272.21-.571.447-.843.237-.272.58-.516 1.027-.734.342-.19 1-.299 1.79-.299zm-4.895 8.262v.38c0 .163-.026.38-.105.652-.026.272-.21.571-.448.843-.236.272-.578.516-1.026.734-.474.217-1.079.326-1.895.326-.816 0-1.448-.109-1.895-.326-.474-.218-.816-.462-1.026-.734a2.194 2.194 0 01-.448-.843c-.026-.271-.105-.489-.105-.652v-8.451c0-.082.079-.136.132-.136h1.447c.079 0 .132.081.132.136v7.962c0 .272.026.462.079.598.026.136.105.326.21.408.105.135.263.244.5.353.21.109.5.136.921.136.369 0 .711-.027.948-.136.237-.109.395-.218.5-.326a.826.826 0 00.237-.408c.026-.136.105-.272.105-.625v-7.935c0-.082.08-.136.132-.136h1.447c.08 0 .132.081.132.136l.026 8.044zM78.597 13.45h1.448c.079 0 .131.082.131.136v14.92c0 .081-.079.136-.131.136h-1.448c-.079 0-.131-.082-.131-.136v-14.92c0-.054.052-.136.131-.136z" fill="#fff"/></svg>