<svg width="29" height="28" viewBox="0 0 29 28" fill="none" xmlns="http://www.w3.org/2000/svg">
<path d="M25.5432 18.7717L24.2531 9.83501C23.9216 7.53668 21.9213 5.83334 19.5658 5.83334H8.84199C6.48654 5.83334 4.48618 7.53668 4.15476 9.83501L2.86459 18.7717C2.60418 20.5683 4.01272 22.1667 5.84737 22.1667C6.65225 22.1667 7.40978 21.8517 7.97793 21.2917L10.653 18.6667H17.7548L20.418 21.2917C20.9862 21.8517 21.7556 22.1667 22.5486 22.1667C24.3951 22.1667 25.8036 20.5683 25.5432 18.7717ZM13.0203 12.8333H10.653V15.1667H9.46933V12.8333H7.10204V11.6667H9.46933V9.33334H10.653V11.6667H13.0203V12.8333ZM17.7548 11.6667C17.1038 11.6667 16.5712 11.1417 16.5712 10.5C16.5712 9.85834 17.1038 9.33334 17.7548 9.33334C18.4058 9.33334 18.9385 9.85834 18.9385 10.5C18.9385 11.1417 18.4058 11.6667 17.7548 11.6667ZM20.1221 15.1667C19.4711 15.1667 18.9385 14.6417 18.9385 14C18.9385 13.3583 19.4711 12.8333 20.1221 12.8333C20.7731 12.8333 21.3058 13.3583 21.3058 14C21.3058 14.6417 20.7731 15.1667 20.1221 15.1667Z" fill="#2A7AE4"/>
</svg>
